<svg width="15" height="14" viewBox="0 0 15 14" fill="none" xmlns="http://www.w3.org/2000/svg">
<path d="M8.30913 6.99951L12.4107 2.11045C12.4794 2.0292 12.4216 1.90576 12.3154 1.90576H11.0685C10.9951 1.90576 10.9248 1.93857 10.8763 1.99482L7.49351 6.02764L4.1107 1.99482C4.06382 1.93857 3.99351 1.90576 3.91851 1.90576H2.67163C2.56538 1.90576 2.50757 2.0292 2.57632 2.11045L6.67788 6.99951L2.57632 11.8886C2.56092 11.9067 2.55104 11.9288 2.54785 11.9524C2.54467 11.976 2.54831 11.9999 2.55834 12.0215C2.56838 12.043 2.58439 12.0613 2.60447 12.074C2.62455 12.0867 2.64786 12.0934 2.67163 12.0933H3.91851C3.99195 12.0933 4.06226 12.0605 4.1107 12.0042L7.49351 7.97139L10.8763 12.0042C10.9232 12.0605 10.9935 12.0933 11.0685 12.0933H12.3154C12.4216 12.0933 12.4794 11.9698 12.4107 11.8886L8.30913 6.99951Z" fill="black"/>
</svg>
