<svg width="14" height="15" viewBox="0 0 14 15" fill="none" xmlns="http://www.w3.org/2000/svg">
<path d="M6.25009 7.7998C6.25009 7.99872 6.32911 8.18948 6.46976 8.33013C6.61041 8.47079 6.80118 8.5498 7.00009 8.5498C7.199 8.5498 7.38977 8.47079 7.53042 8.33013C7.67107 8.18948 7.75009 7.99872 7.75009 7.7998C7.75009 7.60089 7.67107 7.41013 7.53042 7.26947C7.38977 7.12882 7.199 7.0498 7.00009 7.0498C6.80118 7.0498 6.61041 7.12882 6.46976 7.26947C6.32911 7.41013 6.25009 7.60089 6.25009 7.7998ZM9.37509 7.7998C9.37509 7.99872 9.45411 8.18948 9.59476 8.33013C9.73541 8.47079 9.92618 8.5498 10.1251 8.5498C10.324 8.5498 10.5148 8.47079 10.6554 8.33013C10.7961 8.18948 10.8751 7.99872 10.8751 7.7998C10.8751 7.60089 10.7961 7.41013 10.6554 7.26947C10.5148 7.12882 10.324 7.0498 10.1251 7.0498C9.92618 7.0498 9.73541 7.12882 9.59476 7.26947C9.45411 7.41013 9.37509 7.60089 9.37509 7.7998ZM3.12509 7.7998C3.12509 7.99872 3.20411 8.18948 3.34476 8.33013C3.48541 8.47079 3.67618 8.5498 3.87509 8.5498C4.074 8.5498 4.26477 8.47079 4.40542 8.33013C4.54607 8.18948 4.62509 7.99872 4.62509 7.7998C4.62509 7.60089 4.54607 7.41013 4.40542 7.26947C4.26477 7.12882 4.074 7.0498 3.87509 7.0498C3.67618 7.0498 3.48541 7.12882 3.34476 7.26947C3.20411 7.41013 3.12509 7.60089 3.12509 7.7998ZM13.4563 5.0873C13.1032 4.24824 12.597 3.49512 11.9517 2.84824C11.3109 2.20511 10.5501 1.6939 9.71259 1.34355C8.85321 0.982617 7.94071 0.799805 7.00009 0.799805H6.96884C6.02196 0.804492 5.10478 0.991992 4.24228 1.36074C3.4119 1.71468 2.65831 2.2268 2.02353 2.86855C1.38446 3.51387 0.882901 4.26387 0.536026 5.0998C0.176651 5.96543 -0.00459886 6.88574 8.86448e-05 7.83262C0.0053906 8.91773 0.262107 9.98685 0.750089 10.9561V13.3311C0.750089 13.5217 0.825814 13.7045 0.960606 13.8393C1.0954 13.9741 1.27821 14.0498 1.46884 14.0498H3.8454C4.81461 14.5378 5.88373 14.7945 6.96884 14.7998H7.00165C7.93759 14.7998 8.8454 14.6186 9.70009 14.2639C10.5334 13.9177 11.2913 13.4124 11.9313 12.7764C12.5767 12.1373 13.0845 11.3904 13.4392 10.5576C13.8079 9.69512 13.9954 8.77793 14.0001 7.83105C14.0048 6.87949 13.8204 5.95605 13.4563 5.0873ZM11.0954 11.9311C10.0001 13.0154 8.54696 13.6123 7.00009 13.6123H6.97353C6.03134 13.6076 5.0954 13.3732 4.26884 12.9326L4.13759 12.8623H1.93759V10.6623L1.86728 10.5311C1.42665 9.70449 1.19228 8.76855 1.18759 7.82637C1.18134 6.26855 1.77665 4.80605 2.86884 3.70449C3.95946 2.60293 5.41728 1.99355 6.97509 1.9873H7.00165C7.7829 1.9873 8.54071 2.13887 9.25478 2.43887C9.95165 2.73105 10.5767 3.15137 11.1142 3.68887C11.6501 4.2248 12.072 4.85137 12.3642 5.54824C12.6673 6.27012 12.8188 7.03574 12.8157 7.82637C12.8063 9.38262 12.1954 10.8404 11.0954 11.9311Z" fill="#1069BB"/>
</svg>
