<svg width="14" height="15" viewBox="0 0 14 15" fill="none" xmlns="http://www.w3.org/2000/svg">
<path d="M6.25009 7.3999C6.25009 7.59881 6.32911 7.78958 6.46976 7.93023C6.61041 8.07088 6.80118 8.1499 7.00009 8.1499C7.199 8.1499 7.38977 8.07088 7.53042 7.93023C7.67107 7.78958 7.75009 7.59881 7.75009 7.3999C7.75009 7.20099 7.67107 7.01022 7.53042 6.86957C7.38977 6.72892 7.199 6.6499 7.00009 6.6499C6.80118 6.6499 6.61041 6.72892 6.46976 6.86957C6.32911 7.01022 6.25009 7.20099 6.25009 7.3999ZM9.37509 7.3999C9.37509 7.59881 9.45411 7.78958 9.59476 7.93023C9.73541 8.07088 9.92618 8.1499 10.1251 8.1499C10.324 8.1499 10.5148 8.07088 10.6554 7.93023C10.7961 7.78958 10.8751 7.59881 10.8751 7.3999C10.8751 7.20099 10.7961 7.01022 10.6554 6.86957C10.5148 6.72892 10.324 6.6499 10.1251 6.6499C9.92618 6.6499 9.73541 6.72892 9.59476 6.86957C9.45411 7.01022 9.37509 7.20099 9.37509 7.3999ZM3.12509 7.3999C3.12509 7.59881 3.20411 7.78958 3.34476 7.93023C3.48541 8.07088 3.67618 8.1499 3.87509 8.1499C4.074 8.1499 4.26477 8.07088 4.40542 7.93023C4.54607 7.78958 4.62509 7.59881 4.62509 7.3999C4.62509 7.20099 4.54607 7.01022 4.40542 6.86957C4.26477 6.72892 4.074 6.6499 3.87509 6.6499C3.67618 6.6499 3.48541 6.72892 3.34476 6.86957C3.20411 7.01022 3.12509 7.20099 3.12509 7.3999ZM13.4563 4.6874C13.1032 3.84834 12.597 3.09521 11.9517 2.44834C11.3109 1.80521 10.5501 1.294 9.71259 0.943652C8.85321 0.582715 7.94071 0.399902 7.00009 0.399902H6.96884C6.02196 0.40459 5.10478 0.59209 4.24228 0.96084C3.4119 1.31478 2.65831 1.8269 2.02353 2.46865C1.38446 3.11396 0.882901 3.86397 0.536026 4.6999C0.176651 5.56553 -0.00459886 6.48584 8.86448e-05 7.43271C0.0053906 8.51783 0.262107 9.58694 0.750089 10.5562V12.9312C0.750089 13.1218 0.825814 13.3046 0.960606 13.4394C1.0954 13.5742 1.27821 13.6499 1.46884 13.6499H3.8454C4.81461 14.1379 5.88373 14.3946 6.96884 14.3999H7.00165C7.93759 14.3999 8.8454 14.2187 9.70009 13.864C10.5334 13.5178 11.2913 13.0125 11.9313 12.3765C12.5767 11.7374 13.0845 10.9905 13.4392 10.1577C13.8079 9.29521 13.9954 8.37803 14.0001 7.43115C14.0048 6.47959 13.8204 5.55615 13.4563 4.6874ZM11.0954 11.5312C10.0001 12.6155 8.54696 13.2124 7.00009 13.2124H6.97353C6.03134 13.2077 5.0954 12.9733 4.26884 12.5327L4.13759 12.4624H1.93759V10.2624L1.86728 10.1312C1.42665 9.30459 1.19228 8.36865 1.18759 7.42647C1.18134 5.86865 1.77665 4.40615 2.86884 3.30459C3.95946 2.20303 5.41728 1.59365 6.97509 1.5874H7.00165C7.7829 1.5874 8.54071 1.73896 9.25478 2.03896C9.95165 2.33115 10.5767 2.75146 11.1142 3.28896C11.6501 3.8249 12.072 4.45146 12.3642 5.14834C12.6673 5.87021 12.8188 6.63584 12.8157 7.42647C12.8063 8.98271 12.1954 10.4405 11.0954 11.5312Z" fill="white"/>
</svg>
