<svg width="12" height="14" viewBox="0 0 12 14" fill="none" xmlns="http://www.w3.org/2000/svg">
<path d="M3.62476 1.87357H3.49976C3.56851 1.87357 3.62476 1.81732 3.62476 1.74857V1.87357H8.37476V1.74857C8.37476 1.81732 8.43101 1.87357 8.49976 1.87357H8.37476V2.99857H9.49976V1.74857C9.49976 1.197 9.05132 0.748566 8.49976 0.748566H3.49976C2.94819 0.748566 2.49976 1.197 2.49976 1.74857V2.99857H3.62476V1.87357ZM11.4998 2.99857H0.499756C0.223193 2.99857 -0.000244141 3.222 -0.000244141 3.49857V3.99857C-0.000244141 4.06732 0.0560059 4.12357 0.124756 4.12357H1.06851L1.45444 12.2954C1.47944 12.8283 1.92007 13.2486 2.45288 13.2486H9.54663C10.081 13.2486 10.5201 12.8298 10.5451 12.2954L10.931 4.12357H11.8748C11.9435 4.12357 11.9998 4.06732 11.9998 3.99857V3.49857C11.9998 3.222 11.7763 2.99857 11.4998 2.99857ZM9.42632 12.1236H2.57319L2.19507 4.12357H9.80445L9.42632 12.1236Z" fill="#FF6B00"/>
</svg>
