<svg width="14" height="14" viewBox="0 0 14 14" fill="none" xmlns="http://www.w3.org/2000/svg">
<g clip-path="url(#clip0_217_4385)">
<path d="M12.7498 0.751953H1.24982C0.973258 0.751953 0.749821 0.975391 0.749821 1.25195V12.752C0.749821 13.0285 0.973258 13.252 1.24982 13.252H12.7498C13.0264 13.252 13.2498 13.0285 13.2498 12.752V1.25195C13.2498 0.975391 13.0264 0.751953 12.7498 0.751953ZM12.1248 12.127H1.87482V1.87695H12.1248V12.127ZM6.68732 5.25195H9.56232C9.63107 5.25195 9.68732 5.1957 9.68732 5.12695V4.37695C9.68732 4.3082 9.63107 4.25195 9.56232 4.25195H6.68732C6.61857 4.25195 6.56232 4.3082 6.56232 4.37695V5.12695C6.56232 5.1957 6.61857 5.25195 6.68732 5.25195ZM6.68732 7.50195H9.56232C9.63107 7.50195 9.68732 7.4457 9.68732 7.37695V6.62695C9.68732 6.5582 9.63107 6.50195 9.56232 6.50195H6.68732C6.61857 6.50195 6.56232 6.5582 6.56232 6.62695V7.37695C6.56232 7.4457 6.61857 7.50195 6.68732 7.50195ZM6.68732 9.75195H9.56232C9.63107 9.75195 9.68732 9.6957 9.68732 9.62695V8.87695C9.68732 8.8082 9.63107 8.75195 9.56232 8.75195H6.68732C6.61857 8.75195 6.56232 8.8082 6.56232 8.87695V9.62695C6.56232 9.6957 6.61857 9.75195 6.68732 9.75195ZM4.31232 4.75195C4.31232 4.91771 4.37817 5.07668 4.49538 5.1939C4.61259 5.31111 4.77156 5.37695 4.93732 5.37695C5.10308 5.37695 5.26205 5.31111 5.37926 5.1939C5.49647 5.07668 5.56232 4.91771 5.56232 4.75195C5.56232 4.58619 5.49647 4.42722 5.37926 4.31001C5.26205 4.1928 5.10308 4.12695 4.93732 4.12695C4.77156 4.12695 4.61259 4.1928 4.49538 4.31001C4.37817 4.42722 4.31232 4.58619 4.31232 4.75195ZM4.31232 7.00195C4.31232 7.16771 4.37817 7.32669 4.49538 7.4439C4.61259 7.56111 4.77156 7.62695 4.93732 7.62695C5.10308 7.62695 5.26205 7.56111 5.37926 7.4439C5.49647 7.32669 5.56232 7.16771 5.56232 7.00195C5.56232 6.83619 5.49647 6.67722 5.37926 6.56001C5.26205 6.4428 5.10308 6.37695 4.93732 6.37695C4.77156 6.37695 4.61259 6.4428 4.49538 6.56001C4.37817 6.67722 4.31232 6.83619 4.31232 7.00195ZM4.31232 9.25195C4.31232 9.41771 4.37817 9.57669 4.49538 9.6939C4.61259 9.81111 4.77156 9.87695 4.93732 9.87695C5.10308 9.87695 5.26205 9.81111 5.37926 9.6939C5.49647 9.57669 5.56232 9.41771 5.56232 9.25195C5.56232 9.08619 5.49647 8.92722 5.37926 8.81001C5.26205 8.6928 5.10308 8.62695 4.93732 8.62695C4.77156 8.62695 4.61259 8.6928 4.49538 8.81001C4.37817 8.92722 4.31232 9.08619 4.31232 9.25195Z" fill="black"/>
</g>
<defs>
<clipPath id="clip0_217_4385">
<rect width="14" height="14" fill="white"/>
</clipPath>
</defs>
</svg>
