<svg width="12" height="12" viewBox="0 0 12 12" fill="none" xmlns="http://www.w3.org/2000/svg">
<path d="M4.24988 2.76886H5.40457V8.0548C5.40457 8.12355 5.46082 8.1798 5.52957 8.1798H6.46707C6.53582 8.1798 6.59207 8.12355 6.59207 8.0548V2.76886H7.74988C7.85457 2.76886 7.91238 2.64855 7.84832 2.5673L6.09832 0.351672C6.08662 0.336731 6.07168 0.324649 6.05463 0.316339C6.03757 0.308029 6.01885 0.303711 5.99988 0.303711C5.98091 0.303711 5.96218 0.308029 5.94513 0.316339C5.92807 0.324649 5.91313 0.336731 5.90144 0.351672L4.15144 2.56573C4.08738 2.64855 4.14519 2.76886 4.24988 2.76886ZM11.7186 7.58605H10.7811C10.7124 7.58605 10.6561 7.6423 10.6561 7.71105V10.1173H1.34363V7.71105C1.34363 7.6423 1.28738 7.58605 1.21863 7.58605H0.281128C0.212378 7.58605 0.156128 7.6423 0.156128 7.71105V10.8048C0.156128 11.0814 0.379565 11.3048 0.656128 11.3048H11.3436C11.6202 11.3048 11.8436 11.0814 11.8436 10.8048V7.71105C11.8436 7.6423 11.7874 7.58605 11.7186 7.58605Z" fill="black" fill-opacity="0.25"/>
</svg>
