<svg width="14" height="14" viewBox="0 0 14 14" fill="none" xmlns="http://www.w3.org/2000/svg">
<g clip-path="url(#clip0_236_1897)">
<path d="M3.02644 10.7485C3.05769 10.7485 3.08894 10.7454 3.12019 10.7407L5.74832 10.2798C5.77957 10.2735 5.80925 10.2595 5.83113 10.236L12.4546 3.6126C12.4691 3.59814 12.4805 3.58097 12.4884 3.56207C12.4962 3.54317 12.5003 3.52291 12.5003 3.50244C12.5003 3.48198 12.4962 3.46171 12.4884 3.44281C12.4805 3.42391 12.4691 3.40674 12.4546 3.39229L9.85769 0.793848C9.828 0.76416 9.78894 0.748535 9.74675 0.748535C9.70457 0.748535 9.6655 0.76416 9.63582 0.793848L3.01238 7.41729C2.98894 7.44072 2.97488 7.46885 2.96863 7.5001L2.50769 10.1282C2.49249 10.2119 2.49792 10.2981 2.52351 10.3792C2.54911 10.4603 2.59409 10.534 2.65457 10.5938C2.75769 10.6938 2.88738 10.7485 3.02644 10.7485ZM4.07957 8.02354L9.74675 2.35791L10.8921 3.50322L5.22488 9.16885L3.83582 9.41416L4.07957 8.02354ZM12.7499 12.061H1.24988C0.973315 12.061 0.749878 12.2845 0.749878 12.561V13.1235C0.749878 13.1923 0.806128 13.2485 0.874878 13.2485H13.1249C13.1936 13.2485 13.2499 13.1923 13.2499 13.1235V12.561C13.2499 12.2845 13.0264 12.061 12.7499 12.061Z" fill="#1069BB"/>
</g>
<defs>
<clipPath id="clip0_236_1897">
<rect width="14" height="14" fill="white"/>
</clipPath>
</defs>
</svg>
