<svg width="14" height="14" viewBox="0 0 14 14" fill="none" xmlns="http://www.w3.org/2000/svg">
<path d="M3.02638 10.7486C3.05763 10.7486 3.08888 10.7455 3.12013 10.7408L5.74825 10.2798C5.7795 10.2736 5.80919 10.2595 5.83107 10.2361L12.4545 3.61264C12.469 3.59819 12.4805 3.58102 12.4883 3.56212C12.4962 3.54321 12.5002 3.52295 12.5002 3.50249C12.5002 3.48202 12.4962 3.46176 12.4883 3.44286C12.4805 3.42396 12.469 3.40679 12.4545 3.39233L9.85763 0.793893C9.82794 0.764206 9.78888 0.748581 9.74669 0.748581C9.7045 0.748581 9.66544 0.764206 9.63576 0.793893L3.01232 7.41733C2.98888 7.44077 2.97482 7.46889 2.96857 7.50014L2.50763 10.1283C2.49243 10.212 2.49786 10.2981 2.52345 10.3793C2.54905 10.4604 2.59403 10.5341 2.6545 10.5939C2.75763 10.6939 2.88732 10.7486 3.02638 10.7486ZM4.0795 8.02358L9.74669 2.35796L10.892 3.50327L5.22482 9.16889L3.83575 9.41421L4.0795 8.02358ZM12.7498 12.0611H1.24982C0.973254 12.0611 0.749817 12.2845 0.749817 12.5611V13.1236C0.749817 13.1923 0.806067 13.2486 0.874817 13.2486H13.1248C13.1936 13.2486 13.2498 13.1923 13.2498 13.1236V12.5611C13.2498 12.2845 13.0264 12.0611 12.7498 12.0611Z" fill="white"/>
</svg>
