<svg width="46" height="47" viewBox="0 0 46 47" fill="none" xmlns="http://www.w3.org/2000/svg">
<rect x="0.5" y="1.30005" width="45" height="45" stroke="#DCDCDC"/>
<g clip-path="url(#clip0_290_1471)">
<path d="M34.472 16.3201L27.2666 9.11478C27.0658 8.91389 26.7945 8.80005 26.5099 8.80005H12.2867C11.6941 8.80005 11.2153 9.27884 11.2153 9.87148V37.7286C11.2153 38.3213 11.6941 38.8 12.2867 38.8H33.7153C34.3079 38.8 34.7867 38.3213 34.7867 37.7286V17.0802C34.7867 16.7956 34.6729 16.521 34.472 16.3201ZM32.3158 17.5724H26.0144V11.271L32.3158 17.5724ZM32.376 36.3893H13.626V11.2108H23.7376V18.4429C23.7376 18.8159 23.8858 19.1736 24.1495 19.4373C24.4132 19.701 24.7709 19.8492 25.1439 19.8492H32.376V36.3893Z" fill="#898989"/>
</g>
<defs>
<clipPath id="clip0_290_1471">
<rect width="30" height="30" fill="white" transform="translate(8 8.80005)"/>
</clipPath>
</defs>
</svg>
