<svg width="14" height="13" viewBox="0 0 14 13" fill="none" xmlns="http://www.w3.org/2000/svg">
<path d="M1.11182 0.473145H7.80626C7.94376 0.473145 8.05626 0.585645 8.05626 0.723145V4.27777H6.99376V1.53564H1.92432V11.6606H6.99376V8.94444H8.05626V12.4731C8.05626 12.6106 7.94376 12.7231 7.80626 12.7231H1.11182C0.974316 12.7231 0.861816 12.6106 0.861816 12.4731V0.723145C0.861816 0.585645 0.974316 0.473145 1.11182 0.473145Z" fill="#1069BB"/>
<path d="M10.6257 6.23704H13.0146C13.0833 6.23704 13.1396 6.29329 13.1396 6.36204V7.11204C13.1396 7.18079 13.0833 7.23704 13.0146 7.23704H10.6257V9.62593C10.6257 9.69468 10.5695 9.75093 10.5007 9.75093H9.75071C9.68196 9.75093 9.62571 9.69468 9.62571 9.62593V7.23704H7.23682C7.16807 7.23704 7.11182 7.18079 7.11182 7.11204V6.36204C7.11182 6.29329 7.16807 6.23704 7.23682 6.23704H9.62571V3.84815C9.62571 3.7794 9.68196 3.72315 9.75071 3.72315H10.5007C10.5695 3.72315 10.6257 3.7794 10.6257 3.84815V6.23704Z" fill="#1069BB"/>
</svg>
