<svg width="14" height="14" viewBox="0 0 14 14" fill="none" xmlns="http://www.w3.org/2000/svg">
<g clip-path="url(#clip0_217_4370)">
<path d="M13.4498 8.77878L12.4264 7.90378C12.4748 7.60691 12.4998 7.30378 12.4998 7.00066C12.4998 6.69753 12.4748 6.39441 12.4264 6.09753L13.4498 5.22253C13.527 5.15645 13.5823 5.06843 13.6082 4.97019C13.6342 4.87194 13.6296 4.76812 13.5951 4.67253L13.5811 4.63191C13.2993 3.84445 12.8774 3.11446 12.3358 2.47722L12.3076 2.44441C12.2419 2.36715 12.1544 2.31161 12.0565 2.28511C11.9586 2.25861 11.8549 2.2624 11.7592 2.29597L10.4889 2.74753C10.0201 2.36316 9.49671 2.06003 8.93108 1.84753L8.68577 0.519409C8.66726 0.419475 8.61878 0.327538 8.54678 0.255812C8.47477 0.184086 8.38265 0.135967 8.28264 0.117847L8.24046 0.110034C7.42639 -0.0368408 6.57014 -0.0368408 5.75608 0.110034L5.71389 0.117847C5.61389 0.135967 5.52176 0.184086 5.44976 0.255812C5.37775 0.327538 5.32928 0.419475 5.31077 0.519409L5.06389 1.85378C4.50278 2.06633 3.98025 2.36929 3.51702 2.75066L2.23733 2.29597C2.14165 2.26213 2.03794 2.25821 1.93998 2.28472C1.84202 2.31123 1.75444 2.36693 1.68889 2.44441L1.66077 2.47722C1.11975 3.11492 0.69792 3.84478 0.415457 4.63191L0.401395 4.67253C0.331082 4.86785 0.388895 5.0866 0.546707 5.22253L1.58264 6.10691C1.53421 6.40066 1.51077 6.70066 1.51077 6.9991C1.51077 7.2991 1.53421 7.5991 1.58264 7.89128L0.546707 8.77566C0.469513 8.84174 0.414264 8.92976 0.388307 9.02801C0.36235 9.12625 0.366915 9.23007 0.401395 9.32566L0.415457 9.36628C0.69827 10.1538 1.11702 10.8803 1.66077 11.521L1.68889 11.5538C1.7546 11.631 1.84218 11.6866 1.94009 11.7131C2.03799 11.7396 2.14162 11.7358 2.23733 11.7022L3.51702 11.2475C3.98265 11.6303 4.50296 11.9335 5.06389 12.1444L5.31077 13.4788C5.32928 13.5787 5.37775 13.6707 5.44976 13.7424C5.52176 13.8141 5.61389 13.8622 5.71389 13.8803L5.75608 13.8882C6.57762 14.0358 7.41891 14.0358 8.24046 13.8882L8.28264 13.8803C8.38265 13.8622 8.47477 13.8141 8.54678 13.7424C8.61878 13.6707 8.66726 13.5787 8.68577 13.4788L8.93108 12.1507C9.49648 11.9387 10.0229 11.6346 10.4889 11.2507L11.7592 11.7022C11.8549 11.7361 11.9586 11.74 12.0566 11.7135C12.1545 11.687 12.2421 11.6313 12.3076 11.5538L12.3358 11.521C12.8795 10.8788 13.2983 10.1538 13.5811 9.36628L13.5951 9.32566C13.6655 9.13347 13.6076 8.91472 13.4498 8.77878ZM11.317 6.28191C11.3561 6.51785 11.3764 6.76003 11.3764 7.00222C11.3764 7.24441 11.3561 7.4866 11.317 7.72253L11.2139 8.3491L12.3811 9.34753C12.2041 9.75517 11.9808 10.1411 11.7155 10.4975L10.2655 9.98347L9.77483 10.3866C9.40139 10.6928 8.98577 10.9335 8.53577 11.1022L7.94046 11.3257L7.66077 12.8413C7.21947 12.8913 6.77394 12.8913 6.33264 12.8413L6.05296 11.3225L5.46233 11.096C5.01702 10.9272 4.60296 10.6866 4.23264 10.3819L3.74202 9.97722L2.28264 10.496C2.01702 10.1382 1.79514 9.75222 1.61702 9.34597L2.79671 8.33816L2.69514 7.71316C2.65764 7.48035 2.63733 7.23972 2.63733 7.00222C2.63733 6.76316 2.65608 6.5241 2.69514 6.29128L2.79671 5.66628L1.61702 4.65847C1.79358 4.25066 2.01702 3.86628 2.28264 3.50847L3.74202 4.02722L4.23264 3.62253C4.60296 3.31785 5.01702 3.07722 5.46233 2.90847L6.05452 2.68503L6.33421 1.16628C6.77327 1.11628 7.22171 1.11628 7.66233 1.16628L7.94202 2.68191L8.53733 2.90535C8.98577 3.0741 9.40296 3.31472 9.77639 3.62097L10.267 4.0241L11.717 3.51003C11.9826 3.86785 12.2045 4.25378 12.3826 4.66003L11.2155 5.65847L11.317 6.28191ZM6.99983 4.09597C5.48108 4.09597 4.24983 5.32722 4.24983 6.84597C4.24983 8.36472 5.48108 9.59597 6.99983 9.59597C8.51858 9.59597 9.74983 8.36472 9.74983 6.84597C9.74983 5.32722 8.51858 4.09597 6.99983 4.09597ZM8.23733 8.08347C8.07502 8.24625 7.88213 8.37533 7.66975 8.46328C7.45738 8.55124 7.2297 8.59633 6.99983 8.59597C6.53264 8.59597 6.09358 8.41316 5.76233 8.08347C5.59956 7.92116 5.47048 7.72827 5.38252 7.51589C5.29457 7.30351 5.24947 7.07584 5.24983 6.84597C5.24983 6.37878 5.43264 5.93972 5.76233 5.60847C6.09358 5.27722 6.53264 5.09597 6.99983 5.09597C7.46702 5.09597 7.90608 5.27722 8.23733 5.60847C8.40011 5.77078 8.52919 5.96367 8.61714 6.17605C8.7051 6.38843 8.75019 6.6161 8.74983 6.84597C8.74983 7.31316 8.56702 7.75222 8.23733 8.08347Z" fill="black" fill-opacity="0.85"/>
</g>
<defs>
<clipPath id="clip0_217_4370">
<rect width="14" height="14" fill="white"/>
</clipPath>
</defs>
</svg>
