<svg width="24" height="19" viewBox="0 0 24 19" fill="none" xmlns="http://www.w3.org/2000/svg">
<path d="M22.5625 0.862549H1.4375C0.988086 0.862549 0.625 1.22563 0.625 1.67505V17.925C0.625 18.3745 0.988086 18.7375 1.4375 18.7375H22.5625C23.0119 18.7375 23.375 18.3745 23.375 17.925V1.67505C23.375 1.22563 23.0119 0.862549 22.5625 0.862549ZM21.5469 16.9094H2.45312V15.8963L5.96973 11.7247L9.78086 16.2442L15.7096 9.21606L21.5469 16.1375V16.9094ZM21.5469 13.6137L15.8645 6.87505C15.7832 6.77856 15.6359 6.77856 15.5547 6.87505L9.78086 13.7204L6.12461 9.38618C6.04336 9.2897 5.89609 9.2897 5.81484 9.38618L2.45312 13.3725V2.69067H21.5469V13.6137Z" fill="#FF4D4F"/>
<path d="M6.71875 8.37817C7.01217 8.37817 7.30272 8.32038 7.57381 8.20809C7.8449 8.0958 8.09121 7.93122 8.29869 7.72374C8.50617 7.51626 8.67075 7.26994 8.78304 6.99886C8.89533 6.72777 8.95312 6.43722 8.95312 6.1438C8.95312 5.85038 8.89533 5.55983 8.78304 5.28874C8.67075 5.01765 8.50617 4.77134 8.29869 4.56386C8.09121 4.35638 7.8449 4.19179 7.57381 4.07951C7.30272 3.96722 7.01217 3.90942 6.71875 3.90942C6.12616 3.90942 5.55783 4.14483 5.13881 4.56386C4.71978 4.98288 4.48438 5.55121 4.48438 6.1438C4.48438 6.73639 4.71978 7.30471 5.13881 7.72374C5.55783 8.14277 6.12616 8.37817 6.71875 8.37817ZM6.71875 5.43286C7.1123 5.43286 7.42969 5.75024 7.42969 6.1438C7.42969 6.53735 7.1123 6.85474 6.71875 6.85474C6.3252 6.85474 6.00781 6.53735 6.00781 6.1438C6.00781 5.75024 6.3252 5.43286 6.71875 5.43286Z" fill="#FF4D4F"/>
</svg>
