<svg width="14" height="15" viewBox="0 0 14 15" fill="none" xmlns="http://www.w3.org/2000/svg">
<g clip-path="url(#clip0_290_1466)">
<path d="M4.62476 2.67358H4.49976C4.56851 2.67358 4.62476 2.61733 4.62476 2.54858V2.67358H9.37476V2.54858C9.37476 2.61733 9.43101 2.67358 9.49976 2.67358H9.37476V3.79858H10.4998V2.54858C10.4998 1.99702 10.0513 1.54858 9.49976 1.54858H4.49976C3.94819 1.54858 3.49976 1.99702 3.49976 2.54858V3.79858H4.62476V2.67358ZM12.4998 3.79858H1.49976C1.22319 3.79858 0.999756 4.02202 0.999756 4.29858V4.79858C0.999756 4.86733 1.05601 4.92358 1.12476 4.92358H2.06851L2.45444 13.0955C2.47944 13.6283 2.92007 14.0486 3.45288 14.0486H10.5466C11.081 14.0486 11.5201 13.6298 11.5451 13.0955L11.931 4.92358H12.8748C12.9435 4.92358 12.9998 4.86733 12.9998 4.79858V4.29858C12.9998 4.02202 12.7763 3.79858 12.4998 3.79858ZM10.4263 12.9236H3.57319L3.19507 4.92358H10.8044L10.4263 12.9236Z" fill="black" fill-opacity="0.45"/>
</g>
<defs>
<clipPath id="clip0_290_1466">
<rect width="14" height="14" fill="white" transform="translate(0 0.800049)"/>
</clipPath>
</defs>
</svg>
