<svg width="14" height="15" viewBox="0 0 14 15" fill="none" xmlns="http://www.w3.org/2000/svg">
<path d="M7.96856 10.1958C7.94506 10.1725 7.91334 10.1594 7.88027 10.1594C7.84721 10.1594 7.81549 10.1725 7.79199 10.1958L5.97637 12.0114C5.13574 12.852 3.71699 12.9411 2.78887 12.0114C1.85918 11.0817 1.94824 9.6645 2.78887 8.82388L4.60449 7.00825C4.65293 6.95982 4.65293 6.88013 4.60449 6.83169L3.98262 6.20982C3.95912 6.18655 3.9274 6.1735 3.89434 6.1735C3.86127 6.1735 3.82955 6.18655 3.80606 6.20982L1.99043 8.02544C0.668555 9.34732 0.668555 11.4864 1.99043 12.8067C3.3123 14.127 5.45137 14.1286 6.77168 12.8067L8.58731 10.9911C8.63574 10.9426 8.63574 10.8629 8.58731 10.8145L7.96856 10.1958ZM12.0092 2.7895C10.6873 1.46763 8.54824 1.46763 7.22793 2.7895L5.41074 4.60513C5.38748 4.62862 5.37443 4.66035 5.37443 4.69341C5.37443 4.72647 5.38748 4.7582 5.41074 4.78169L6.03106 5.402C6.07949 5.45044 6.15918 5.45044 6.20762 5.402L8.02324 3.58638C8.86387 2.74575 10.2826 2.65669 11.2107 3.58638C12.1404 4.51606 12.0514 5.93325 11.2107 6.77388L9.39512 8.5895C9.37185 8.613 9.35881 8.64472 9.35881 8.67778C9.35881 8.71085 9.37185 8.74257 9.39512 8.76607L10.017 9.38794C10.0654 9.43638 10.1451 9.43638 10.1936 9.38794L12.0092 7.57232C13.3295 6.25044 13.3295 4.11138 12.0092 2.7895ZM8.53262 5.61606C8.50912 5.5928 8.4774 5.57975 8.44434 5.57975C8.41128 5.57975 8.37955 5.5928 8.35606 5.61606L4.81699 9.15357C4.79373 9.17706 4.78068 9.20878 4.78068 9.24185C4.78068 9.27491 4.79373 9.30663 4.81699 9.33013L5.43574 9.94888C5.48418 9.99731 5.56387 9.99731 5.61231 9.94888L9.14981 6.41138C9.19824 6.36294 9.19824 6.28325 9.14981 6.23482L8.53262 5.61606Z" fill="#1069BB"/>
</svg>
