<svg width="12" height="12" viewBox="0 0 12 12" fill="none" xmlns="http://www.w3.org/2000/svg">
<path d="M10.2858 5.35882H9.37505V2.35882C9.37505 1.41194 8.60764 0.644531 7.66077 0.644531H4.33934C3.39246 0.644531 2.62505 1.41194 2.62505 2.35882V5.35882H1.71434C1.47728 5.35882 1.28577 5.55034 1.28577 5.78739V10.9302C1.28577 11.1673 1.47728 11.3588 1.71434 11.3588H10.2858C10.5228 11.3588 10.7143 11.1673 10.7143 10.9302V5.78739C10.7143 5.55034 10.5228 5.35882 10.2858 5.35882ZM3.58934 2.35882C3.58934 1.94498 3.9255 1.60882 4.33934 1.60882H7.66077C8.07461 1.60882 8.41077 1.94498 8.41077 2.35882V5.35882H3.58934V2.35882ZM9.75005 10.3945H2.25005V6.3231H9.75005V10.3945ZM5.62505 8.53292V9.24275C5.62505 9.30167 5.67327 9.34989 5.7322 9.34989H6.26791C6.32684 9.34989 6.37505 9.30167 6.37505 9.24275V8.53292C6.48561 8.45355 6.56812 8.34115 6.61073 8.21189C6.65333 8.08263 6.65382 7.94319 6.61213 7.81364C6.57044 7.68409 6.48872 7.5711 6.37873 7.49095C6.26873 7.4108 6.13615 7.36762 6.00005 7.36762C5.86396 7.36762 5.73137 7.4108 5.62138 7.49095C5.51139 7.5711 5.42966 7.68409 5.38797 7.81364C5.34628 7.94319 5.34677 8.08263 5.38938 8.21189C5.43198 8.34115 5.5145 8.45355 5.62505 8.53292Z" fill="#898989"/>
</svg>
