<svg width="12" height="10" viewBox="0 0 12 10" fill="none" xmlns="http://www.w3.org/2000/svg">
<path d="M11.5714 0.283264H0.428571C0.191518 0.283264 0 0.474782 0 0.711836V9.28327C0 9.52032 0.191518 9.71184 0.428571 9.71184H11.5714C11.8085 9.71184 12 9.52032 12 9.28327V0.711836C12 0.474782 11.8085 0.283264 11.5714 0.283264ZM11.0357 1.76719V8.74755H0.964286V1.76719L0.594643 1.47925L1.12098 0.802907L1.6942 1.24889H10.3071L10.8804 0.802907L11.4067 1.47925L11.0357 1.76719ZM10.3071 1.24755L6 4.59576L1.69286 1.24755L1.11964 0.801568L0.593304 1.47791L0.962946 1.76585L5.53795 5.323C5.66952 5.42521 5.83138 5.4807 5.99799 5.4807C6.1646 5.4807 6.32647 5.42521 6.45804 5.323L11.0357 1.76719L11.4054 1.47925L10.879 0.802907L10.3071 1.24755Z" fill="#898989"/>
</svg>
