<svg width="41" height="40" viewBox="0 0 41 40" fill="none" xmlns="http://www.w3.org/2000/svg">
<path d="M20.5 0C9.45536 0 0.5 8.95536 0.5 20C0.5 31.0446 9.45536 40 20.5 40C31.5446 40 40.5 31.0446 40.5 20C40.5 8.95536 31.5446 0 20.5 0ZM29.1384 13.4688L19.7366 26.5045C19.6052 26.6879 19.432 26.8373 19.2313 26.9404C19.0306 27.0435 18.8082 27.0973 18.5826 27.0973C18.357 27.0973 18.1346 27.0435 17.9339 26.9404C17.7332 26.8373 17.56 26.6879 17.4286 26.5045L11.8616 18.7902C11.692 18.5536 11.8616 18.2232 12.1518 18.2232H14.2455C14.7009 18.2232 15.1339 18.442 15.4018 18.817L18.5804 23.2277L25.5982 13.4955C25.8661 13.125 26.2946 12.9018 26.7545 12.9018H28.8482C29.1384 12.9018 29.308 13.2321 29.1384 13.4688Z" fill="#52C41A"/>
</svg>
