<svg width="14" height="14" viewBox="0 0 14 14" fill="none" xmlns="http://www.w3.org/2000/svg">
<path d="M12.8896 13.0278L6.1952 13.0278C6.0577 13.0278 5.9452 12.9153 5.9452 12.7778L5.9452 9.22321L7.0077 9.22321L7.0077 11.9653L12.0771 11.9653L12.0771 1.84033L7.00771 1.84033L7.0077 4.55654L5.9452 4.55654L5.9452 1.02783C5.9452 0.890331 6.0577 0.77783 6.1952 0.77783L12.8896 0.777831C13.0271 0.777831 13.1396 0.890331 13.1396 1.02783L13.1396 12.7778C13.1396 12.9153 13.0271 13.0278 12.8896 13.0278Z" fill="#1069BB"/>
<path d="M3.37576 7.26394L0.986871 7.26394C0.918121 7.26394 0.861872 7.20769 0.861872 7.13894L0.861872 6.38894C0.861872 6.32019 0.918121 6.26394 0.986871 6.26394L3.37576 6.26394L3.37576 3.87505C3.37576 3.8063 3.43201 3.75005 3.50076 3.75005L4.25076 3.75005C4.31951 3.75005 4.37576 3.8063 4.37576 3.87505L4.37576 6.26394L6.76465 6.26394C6.8334 6.26394 6.88965 6.32019 6.88965 6.38894L6.88965 7.13894C6.88965 7.20769 6.8334 7.26394 6.76465 7.26394L4.37576 7.26394L4.37576 9.65283C4.37576 9.72158 4.31951 9.77783 4.25076 9.77783L3.50076 9.77783C3.43201 9.77783 3.37576 9.72158 3.37576 9.65283L3.37576 7.26394Z" fill="#1069BB"/>
</svg>
