<svg width="14" height="14" viewBox="0 0 14 14" fill="none" xmlns="http://www.w3.org/2000/svg">
<g clip-path="url(#clip0_217_4375)">
<path d="M3.37524 10.752H4.62524C4.69399 10.752 4.75024 10.6957 4.75024 10.627V3.37695C4.75024 3.3082 4.69399 3.25195 4.62524 3.25195H3.37524C3.30649 3.25195 3.25024 3.3082 3.25024 3.37695V10.627C3.25024 10.6957 3.30649 10.752 3.37524 10.752ZM6.37524 6.37695H7.62525C7.69399 6.37695 7.75025 6.3207 7.75025 6.25195V3.37695C7.75025 3.3082 7.69399 3.25195 7.62525 3.25195H6.37524C6.30649 3.25195 6.25024 3.3082 6.25024 3.37695V6.25195C6.25024 6.3207 6.30649 6.37695 6.37524 6.37695ZM9.37525 7.50195H10.6252C10.694 7.50195 10.7502 7.4457 10.7502 7.37695V3.37695C10.7502 3.3082 10.694 3.25195 10.6252 3.25195H9.37525C9.30649 3.25195 9.25025 3.3082 9.25025 3.37695V7.37695C9.25025 7.4457 9.30649 7.50195 9.37525 7.50195ZM12.7502 0.751953H1.25024C0.973682 0.751953 0.750244 0.975391 0.750244 1.25195V12.752C0.750244 13.0285 0.973682 13.252 1.25024 13.252H12.7502C13.0268 13.252 13.2502 13.0285 13.2502 12.752V1.25195C13.2502 0.975391 13.0268 0.751953 12.7502 0.751953ZM12.1252 12.127H1.87524V1.87695H12.1252V12.127Z" fill="black" fill-opacity="0.85"/>
</g>
<defs>
<clipPath id="clip0_217_4375">
<rect width="14" height="14" fill="white"/>
</clipPath>
</defs>
</svg>
