<svg width="14" height="14" viewBox="0 0 14 14" fill="none" xmlns="http://www.w3.org/2000/svg">
<path d="M13.1252 11.7485H0.875244C0.806494 11.7485 0.750244 11.8048 0.750244 11.8735V13.1235C0.750244 13.1923 0.806494 13.2485 0.875244 13.2485H13.1252C13.194 13.2485 13.2502 13.1923 13.2502 13.1235V11.8735C13.2502 11.8048 13.194 11.7485 13.1252 11.7485ZM2.96431 10.4985H4.29243C4.35806 10.4985 4.41743 10.4563 4.43774 10.3923L5.27681 7.79854H8.70181L9.53306 10.3923C9.55337 10.4548 9.61118 10.4985 9.67837 10.4985H11.0706C11.0877 10.4985 11.1049 10.4954 11.1206 10.4907C11.1395 10.4842 11.1569 10.4741 11.1719 10.4608C11.1869 10.4475 11.1991 10.4314 11.2078 10.4134C11.2165 10.3954 11.2216 10.3758 11.2227 10.3558C11.2238 10.3358 11.221 10.3158 11.2143 10.297L7.96274 0.85166C7.9522 0.821835 7.93277 0.795958 7.90707 0.777519C7.88136 0.75908 7.85063 0.748964 7.819 0.748535H6.22056C6.15493 0.748535 6.09712 0.78916 6.07681 0.85166L2.82056 10.297C2.81431 10.3126 2.81274 10.3298 2.81274 10.347C2.81118 10.4298 2.87993 10.4985 2.96431 10.4985ZM6.96275 2.43447H7.02681L8.33618 6.55635H5.63931L6.96275 2.43447Z" fill="#1069BB"/>
</svg>
