<svg width="14" height="12" viewBox="0 0 14 12" fill="none" xmlns="http://www.w3.org/2000/svg">
<path d="M0.7229 0.333313H3.91735C4.05485 0.333313 4.16735 0.445813 4.16735 0.583313V4.13794H3.10485V1.39581H1.5354V4.9097H1.94441V5.9722H0.7229C0.5854 5.9722 0.4729 5.8597 0.4729 5.7222V0.583313C0.4729 0.445813 0.5854 0.333313 0.7229 0.333313Z" fill="#1069BB"/>
<path fill-rule="evenodd" clip-rule="evenodd" d="M5.41735 0.333313H8.61179C8.74929 0.333313 8.86179 0.445813 8.86179 0.583313V5.7222C8.86179 5.8597 8.74929 5.9722 8.61179 5.9722H5.41735C5.27985 5.9722 5.16735 5.8597 5.16735 5.7222V0.583313C5.16735 0.445813 5.27985 0.333313 5.41735 0.333313ZM6.22985 4.9097H7.79929V1.39581H6.22985V4.9097Z" fill="#1069BB"/>
<path fill-rule="evenodd" clip-rule="evenodd" d="M10.084 0.361093H13.2785C13.416 0.361093 13.5285 0.473593 13.5285 0.611093V5.74998C13.5285 5.88748 13.416 5.99998 13.2785 5.99998H10.084C9.94651 5.99998 9.83401 5.88748 9.83401 5.74998V0.611093C9.83401 0.473593 9.94651 0.361093 10.084 0.361093ZM10.8965 4.93748H12.466V1.42359H10.8965V4.93748Z" fill="#1069BB"/>
<path d="M4.01457 8.1259H6.01457C6.08332 8.1259 6.13957 8.18215 6.13957 8.2509V9.0009C6.13957 9.06965 6.08332 9.1259 6.01457 9.1259H4.01457V11.1259C4.01457 11.1947 3.95832 11.2509 3.88957 11.2509H3.13957C3.07082 11.2509 3.01457 11.1947 3.01457 11.1259V9.1259H1.01457C0.945822 9.1259 0.889572 9.06965 0.889572 9.0009V8.2509C0.889572 8.18215 0.945822 8.1259 1.01457 8.1259H3.01457V6.12591C3.01457 6.05716 3.07082 6.00091 3.13957 6.00091H3.88957C3.95832 6.00091 4.01457 6.05716 4.01457 6.12591V8.1259Z" fill="#1069BB"/>
</svg>
