<svg width="14" height="14" viewBox="0 0 14 14" fill="none" xmlns="http://www.w3.org/2000/svg">
<path d="M13.5536 6.79793L0.483327 0.244802C0.430202 0.218239 0.369265 0.211989 0.311452 0.226052C0.247289 0.241914 0.192025 0.282554 0.157761 0.339075C0.123498 0.395595 0.113026 0.46339 0.12864 0.527614L1.47551 6.03074C1.49583 6.11355 1.55676 6.18074 1.63801 6.2073L3.94583 6.99949L1.63958 7.79168C1.55833 7.8198 1.49739 7.88543 1.47864 7.96824L0.12864 13.4792C0.114577 13.537 0.120827 13.5979 0.14739 13.6495C0.208327 13.7729 0.358327 13.8229 0.483327 13.762L13.5536 7.24636C13.6021 7.22293 13.6411 7.1823 13.6661 7.13543C13.7271 7.01043 13.6771 6.86043 13.5536 6.79793ZM1.66926 11.9136L2.4552 8.70105L7.0677 7.11824C7.10364 7.10574 7.13333 7.07761 7.14583 7.04011C7.1677 6.97449 7.13333 6.90418 7.0677 6.88074L2.4552 5.29949L1.67239 2.09949L11.4849 7.0198L1.66926 11.9136Z" fill="#1069BB"/>
</svg>
