<svg width="15" height="14" viewBox="0 0 15 14" fill="none" xmlns="http://www.w3.org/2000/svg">
<path d="M5.375 1.87354H5.25C5.31875 1.87354 5.375 1.81729 5.375 1.74854V1.87354H10.125V1.74854C10.125 1.81729 10.1813 1.87354 10.25 1.87354H10.125V2.99854H11.25V1.74854C11.25 1.19697 10.8016 0.748535 10.25 0.748535H5.25C4.69844 0.748535 4.25 1.19697 4.25 1.74854V2.99854H5.375V1.87354ZM13.25 2.99854H2.25C1.97344 2.99854 1.75 3.22197 1.75 3.49854V3.99854C1.75 4.06729 1.80625 4.12354 1.875 4.12354H2.81875L3.20469 12.2954C3.22969 12.8282 3.67031 13.2485 4.20313 13.2485H11.2969C11.8313 13.2485 12.2703 12.8298 12.2953 12.2954L12.6813 4.12354H13.625C13.6938 4.12354 13.75 4.06729 13.75 3.99854V3.49854C13.75 3.22197 13.5266 2.99854 13.25 2.99854ZM11.1766 12.1235H4.32344L3.94531 4.12354H11.5547L11.1766 12.1235Z" fill="#FF6B00"/>
</svg>
