<svg width="32" height="16" viewBox="0 0 32 16" fill="none" xmlns="http://www.w3.org/2000/svg">
<path d="M18.187 12.4907C17.8501 11.6928 17.3613 10.9681 16.7477 10.3568C16.136 9.7438 15.4113 9.25504 14.6138 8.91753C14.6066 8.91396 14.5995 8.91218 14.5923 8.90861C15.7048 8.10503 16.4281 6.79611 16.4281 5.31932C16.4281 2.87289 14.4459 0.890747 11.9995 0.890747C9.55306 0.890747 7.57091 2.87289 7.57091 5.31932C7.57091 6.79611 8.29413 8.10503 9.40663 8.91039C9.39949 8.91396 9.39234 8.91575 9.3852 8.91932C8.5852 9.25682 7.86734 9.74075 7.25127 10.3586C6.63825 10.9703 6.14949 11.695 5.81199 12.4925C5.48042 13.2733 5.3016 14.1105 5.2852 14.9586C5.28472 14.9777 5.28807 14.9966 5.29503 15.0144C5.302 15.0321 5.31245 15.0483 5.32576 15.0619C5.33907 15.0756 5.35498 15.0864 5.37255 15.0938C5.39012 15.1012 5.40899 15.105 5.42806 15.105H6.49949C6.57806 15.105 6.64056 15.0425 6.64234 14.9658C6.67806 13.5872 7.23163 12.2961 8.2102 11.3175C9.2227 10.305 10.5673 9.74789 11.9995 9.74789C13.4316 9.74789 14.7763 10.305 15.7888 11.3175C16.7673 12.2961 17.3209 13.5872 17.3566 14.9658C17.3584 15.0443 17.4209 15.105 17.4995 15.105H18.5709C18.59 15.105 18.6089 15.1012 18.6264 15.0938C18.644 15.0864 18.6599 15.0756 18.6732 15.0619C18.6865 15.0483 18.697 15.0321 18.7039 15.0144C18.7109 14.9966 18.7142 14.9777 18.7138 14.9586C18.6959 14.105 18.5191 13.2747 18.187 12.4907ZM11.9995 8.39075C11.1798 8.39075 10.4084 8.07111 9.82806 7.49075C9.2477 6.91039 8.92806 6.13896 8.92806 5.31932C8.92806 4.49968 9.2477 3.72825 9.82806 3.14789C10.4084 2.56753 11.1798 2.24789 11.9995 2.24789C12.8191 2.24789 13.5906 2.56753 14.1709 3.14789C14.7513 3.72825 15.0709 4.49968 15.0709 5.31932C15.0709 6.13896 14.7513 6.91039 14.1709 7.49075C13.5906 8.07111 12.8191 8.39075 11.9995 8.39075Z" fill="black"/>
</svg>
