<svg width="14" height="14" viewBox="0 0 14 14" fill="none" xmlns="http://www.w3.org/2000/svg">
<g clip-path="url(#clip0_217_4380)">
<path d="M11.8784 9.93814C11.4873 9.54673 11.0303 9.22726 10.5284 8.99439C11.2362 8.42095 11.6878 7.54595 11.6878 6.5647C11.6878 4.83345 10.244 3.41314 8.51277 3.4397C6.80808 3.46626 5.43464 4.85532 5.43464 6.5647C5.43464 7.54595 5.88777 8.42095 6.59402 8.99439C6.092 9.22709 5.63499 9.54657 5.24402 9.93814C4.39089 10.7928 3.90652 11.9209 3.87527 13.1241C3.87485 13.1407 3.87778 13.1573 3.88387 13.1729C3.88997 13.1884 3.89911 13.2025 3.91076 13.2145C3.92241 13.2264 3.93633 13.2359 3.9517 13.2424C3.96707 13.2489 3.98359 13.2522 4.00027 13.2522H4.87527C4.94246 13.2522 4.99871 13.1991 5.00027 13.1319C5.02996 12.2256 5.39714 11.3772 6.04246 10.7334C6.37267 10.4015 6.76546 10.1383 7.19807 9.95913C7.63068 9.77997 8.09453 9.68839 8.56277 9.6897C9.51433 9.6897 10.4096 10.06 11.0831 10.7334C11.7268 11.3772 12.094 12.2256 12.1253 13.1319C12.1268 13.1991 12.1831 13.2522 12.2503 13.2522H13.1253C13.1419 13.2522 13.1585 13.2489 13.1738 13.2424C13.1892 13.2359 13.2031 13.2264 13.2148 13.2145C13.2264 13.2025 13.2356 13.1884 13.2417 13.1729C13.2478 13.1573 13.2507 13.1407 13.2503 13.1241C13.219 11.9209 12.7346 10.7928 11.8784 9.93814ZM8.56277 8.5647C8.02839 8.5647 7.52527 8.35689 7.14871 7.97876C6.95973 7.79127 6.81045 7.56764 6.70978 7.3212C6.60911 7.07476 6.55911 6.81057 6.56277 6.54439C6.56746 6.03189 6.77214 5.53657 7.12996 5.16939C7.50496 4.78501 8.00652 4.57095 8.54246 4.5647C9.07214 4.56001 9.58621 4.76626 9.96433 5.13657C10.3518 5.51626 10.5643 6.02407 10.5643 6.5647C10.5643 7.09907 10.3565 7.60064 9.97839 7.97876C9.79288 8.16516 9.57225 8.31292 9.32926 8.4135C9.08627 8.51407 8.82575 8.56546 8.56277 8.5647ZM4.64871 6.9772C4.63464 6.84126 4.62683 6.70376 4.62683 6.5647C4.62683 6.31626 4.65027 6.07407 4.69402 5.83814C4.70496 5.78189 4.67527 5.72407 4.62371 5.70064C4.41121 5.60532 4.21589 5.47407 4.04714 5.30845C3.8483 5.11565 3.69183 4.88351 3.58771 4.62686C3.4836 4.3702 3.43413 4.09467 3.44246 3.81782C3.45652 3.31626 3.65808 2.8397 4.00964 2.48032C4.39558 2.08501 4.91433 1.86939 5.46589 1.87564C5.96433 1.88032 6.44558 2.07251 6.80964 2.41314C6.93308 2.52876 7.03933 2.65689 7.12839 2.79439C7.15964 2.84282 7.22058 2.86314 7.27371 2.84439C7.54871 2.74907 7.83933 2.68189 8.13777 2.65064C8.22527 2.64126 8.27527 2.54751 8.23621 2.46939C7.72839 1.4647 6.69089 0.770948 5.49089 0.752198C3.75808 0.725635 2.31433 2.14595 2.31433 3.87564C2.31433 4.85689 2.76589 5.73189 3.47371 6.30532C2.97683 6.53501 2.51902 6.8522 2.12214 7.24907C1.26589 8.10376 0.781518 9.23189 0.750268 10.4366C0.749851 10.4532 0.752776 10.4698 0.758871 10.4854C0.764966 10.5009 0.774107 10.515 0.785756 10.527C0.797405 10.5389 0.811327 10.5484 0.8267 10.5549C0.842073 10.5614 0.858586 10.5647 0.875268 10.5647H1.75183C1.81902 10.5647 1.87527 10.5116 1.87683 10.4444C1.90652 9.53814 2.27371 8.6897 2.91902 8.04595C3.37839 7.58657 3.94089 7.26782 4.55496 7.11314C4.61589 7.09751 4.65652 7.0397 4.64871 6.9772Z" fill="black"/>
</g>
<defs>
<clipPath id="clip0_217_4380">
<rect width="14" height="14" fill="white"/>
</clipPath>
</defs>
</svg>
